# Blender 4.0.2
# www.blender.org
mtllib cerca.mtl
o Plane
v -0.001971 -1.383023 1.716365
v -0.001971 -1.383023 2.125314
v -0.001971 3.763279 1.716365
v -0.001971 3.763279 2.125314
v -0.001971 -1.383023 1.716365
v -0.001971 -1.383023 2.125314
v -0.001971 3.763279 1.716365
v -0.001971 3.763279 2.125314
v 0.098029 -1.383023 1.716365
v 0.098029 -1.383023 2.125314
v 0.098029 3.763279 1.716365
v 0.098029 3.763279 2.125314
v -0.001971 -1.383023 1.070045
v -0.001971 -1.383023 1.478994
v -0.001971 3.763279 1.070045
v -0.001971 3.763279 1.478994
v -0.001971 -1.383023 1.070045
v -0.001971 -1.383023 1.478994
v -0.001971 3.763279 1.070045
v -0.001971 3.763279 1.478994
v 0.098029 -1.383023 1.070045
v 0.098029 -1.383023 1.478994
v 0.098029 3.763279 1.070045
v 0.098029 3.763279 1.478994
vn -1.0000 -0.0000 -0.0000
vn -0.0000 -0.0000 -1.0000
vn 1.0000 -0.0000 -0.0000
vn -0.0000 -0.0000 1.0000
vn -0.0000 1.0000 -0.0000
vn -0.0000 -1.0000 -0.0000
vt 0.173404 1.000799
vt 0.940069 0.151970
vt 0.173404 0.151970
vt 1.549162 0.290115
vt 0.700332 0.340115
vt 0.700332 0.290115
vt 0.348361 0.700332
vt 0.348361 1.549162
vt 0.581696 0.549162
vt 0.581696 -0.299668
vt 0.348361 0.549162
vt -0.418304 0.549162
vt 0.581696 0.700332
vt 1.348361 0.700332
vt 0.738009 0.062854
vt -0.028655 0.911683
vt -0.028655 0.062854
vt -0.299668 0.290115
vt 0.549162 0.340115
vt 0.549162 0.290115
vt -0.418304 0.290115
vt 0.348361 0.340115
vt 0.348361 0.290115
vt 1.348361 0.290115
vt 0.581696 0.340115
vt 0.581696 0.290115
vt 0.113872 1.004773
vt 0.880537 0.155943
vt 0.113872 0.155943
vt 0.560030 0.700332
vt 0.560030 1.549162
vt 0.793365 0.549162
vt 0.793365 -0.299668
vt 0.560030 0.549162
vt -0.206635 0.549162
vt 0.793365 0.700332
vt 1.560030 0.700332
vt 0.949678 0.062854
vt 0.183014 0.911683
vt 0.183014 0.062854
vt -0.206635 0.290115
vt 0.560030 0.340115
vt 0.560030 0.290115
vt 1.560030 0.290115
vt 0.793365 0.340115
vt 0.793365 0.290115
vt 0.940069 1.000799
vt 1.549162 0.340115
vt 0.738009 0.911683
vt -0.299668 0.340115
vt -0.418304 0.340115
vt 1.348361 0.340115
vt 0.880537 1.004773
vt 0.949678 0.911683
vt -0.206635 0.340115
vt 1.560030 0.340115
s 0
f 4/1/1 1/2/1 2/3/1
f 7/4/2 9/5/2 5/6/2
f 1/7/3 7/8/3 5/7/3
f 4/9/3 6/10/3 8/9/3
f 3/11/3 8/12/3 7/11/3
f 2/13/3 5/14/3 6/13/3
f 9/15/3 12/16/3 10/17/3
f 6/18/4 12/19/4 8/20/4
f 8/21/5 11/22/5 7/23/5
f 5/24/6 10/25/6 6/26/6
f 16/27/1 13/28/1 14/29/1
f 19/4/2 21/5/2 17/6/2
f 13/30/3 19/31/3 17/30/3
f 16/32/3 18/33/3 20/32/3
f 15/34/3 20/35/3 19/34/3
f 14/36/3 17/37/3 18/36/3
f 21/38/3 24/39/3 22/40/3
f 18/18/4 24/19/4 20/20/4
f 20/41/5 23/42/5 19/43/5
f 17/44/6 22/45/6 18/46/6
f 4/1/1 3/47/1 1/2/1
f 7/4/2 11/48/2 9/5/2
f 1/7/3 3/8/3 7/8/3
f 4/9/3 2/10/3 6/10/3
f 3/11/3 4/12/3 8/12/3
f 2/13/3 1/14/3 5/14/3
f 9/15/3 11/49/3 12/16/3
f 6/18/4 10/50/4 12/19/4
f 8/21/5 12/51/5 11/22/5
f 5/24/6 9/52/6 10/25/6
f 16/27/1 15/53/1 13/28/1
f 19/4/2 23/48/2 21/5/2
f 13/30/3 15/31/3 19/31/3
f 16/32/3 14/33/3 18/33/3
f 15/34/3 16/35/3 20/35/3
f 14/36/3 13/37/3 17/37/3
f 21/38/3 23/54/3 24/39/3
f 18/18/4 22/50/4 24/19/4
f 20/41/5 24/55/5 23/42/5
f 17/44/6 21/56/6 22/45/6
o Cube
v 0.087822 -0.608001 0.429199
v 0.087822 -1.000000 0.429199
v 0.005344 -1.000000 0.429199
v 0.005344 -0.608001 0.429199
v 0.087822 -0.608002 2.429199
v 0.087821 -1.000001 2.429199
v 0.005343 -1.000000 2.429199
v 0.005344 -0.608001 2.429199
v 0.087822 -0.801116 2.929199
v 0.005344 -0.803991 2.929199
v 0.087822 0.391999 0.429199
v 0.087822 0.000000 0.429199
v 0.005344 0.000000 0.429199
v 0.005344 0.391999 0.429199
v 0.087822 0.391998 2.429199
v 0.087821 -0.000001 2.429199
v 0.005343 0.000000 2.429199
v 0.005344 0.391999 2.429199
v 0.087822 0.198884 2.929199
v 0.005344 0.196009 2.929199
v 0.087822 1.391999 0.429199
v 0.087822 1.000000 0.429199
v 0.005344 1.000000 0.429199
v 0.005344 1.391999 0.429199
v 0.087822 1.391998 2.429199
v 0.087821 0.999999 2.429199
v 0.005343 1.000000 2.429199
v 0.005344 1.391999 2.429199
v 0.087822 1.198884 2.929199
v 0.005344 1.196009 2.929199
v 0.087822 2.391999 0.429199
v 0.087822 2.000000 0.429199
v 0.005344 2.000000 0.429199
v 0.005344 2.391999 0.429199
v 0.087822 2.391998 2.429199
v 0.087821 1.999999 2.429199
v 0.005343 2.000000 2.429199
v 0.005344 2.391999 2.429199
v 0.087822 2.198884 2.929199
v 0.005344 2.196009 2.929199
v 0.087822 3.391999 0.429199
v 0.087822 3.000000 0.429199
v 0.005344 3.000000 0.429199
v 0.005344 3.391999 0.429199
v 0.087822 3.391998 2.429199
v 0.087821 3.000000 2.429199
v 0.005343 3.000000 2.429199
v 0.005344 3.391999 2.429199
v 0.087822 3.198884 2.929199
v 0.005344 3.196009 2.929199
vn -0.0000 -0.0000 -1.0000
vn 0.0324 -0.9287 0.3694
vn 1.0000 -0.0000 -0.0000
vn -0.0000 -1.0000 -0.0000
vn -1.0000 -0.0000 -0.0000
vn -0.0000 1.0000 -0.0000
vn -0.0000 0.9328 0.3603
vn -0.0000 -0.9310 0.3650
vn -0.0324 0.9305 0.3648
vt 0.571521 -0.169678
vt 0.532478 0.015886
vt 0.532478 -0.169679
vt -0.289098 0.019365
vt -0.327529 0.269262
vt -0.328151 0.019146
vt 1.019240 -0.010311
vt 1.204804 -0.010311
vt 1.204803 0.936448
vt -0.289109 1.199299
vt -0.328152 1.199334
vt 0.864563 0.252575
vt 1.050127 0.252575
vt 1.050127 1.199334
vt -0.487418 1.199299
vt -0.525845 0.268821
vt -0.486803 0.268787
vt -0.487406 0.019296
vt 0.678999 -0.169679
vt 0.639956 0.015885
vt 0.639956 -0.169679
vt -0.328763 0.019365
vt -0.367193 0.269262
vt -0.367816 0.019146
vt 1.390368 0.041235
vt 1.575932 0.041235
vt 1.575932 0.987994
vt -0.328774 1.199299
vt -0.367816 1.199334
vt -0.063258 0.252575
vt 0.122306 0.252575
vt 0.122307 1.199334
vt -0.566732 1.199299
vt -0.605159 0.268821
vt -0.566117 0.268787
vt -0.566720 0.019296
vt 0.532478 -0.169679
vt 0.493435 0.015885
vt 0.493435 -0.169679
vt -0.249433 0.019365
vt -0.287864 0.269262
vt -0.288486 0.019146
vt 1.263194 0.128940
vt 1.370588 0.128940
vt 1.370588 0.676871
vt -0.249445 1.199299
vt -0.288487 1.199334
vt 0.678999 0.962644
vt 0.493435 0.962644
vt 0.493435 0.015885
vt -0.447761 1.199299
vt -0.486188 0.268821
vt -0.447146 0.268787
vt -0.447749 0.019296
vt 0.307870 -0.169679
vt 0.268827 0.015885
vt 0.268827 -0.169679
vt -0.368428 0.019365
vt -0.406858 0.269262
vt -0.407481 0.019146
vt 0.864563 0.962644
vt 0.678999 0.962644
vt 0.678999 0.015885
vt -0.368439 1.199299
vt -0.407481 1.199334
vt -0.102809 0.672296
vt -0.229039 0.672296
vt -0.229039 0.028266
vt -0.527075 1.199299
vt -0.565502 0.268821
vt -0.526460 0.268787
vt -0.527063 0.019296
vt 0.639955 -0.169679
vt 0.600912 0.015886
vt 0.600912 -0.169679
vt -0.408092 0.019365
vt -0.446523 0.269262
vt -0.447146 0.019146
vt 0.493435 0.962644
vt 0.307871 0.962644
vt 0.307871 0.015885
vt -0.408104 1.199299
vt -0.447146 1.199334
vt 0.307870 0.962644
vt 0.122307 0.962644
vt 0.122307 0.015886
vt -0.606388 1.199299
vt -0.644816 0.268821
vt -0.605774 0.268787
vt -0.606377 0.019296
vt 0.571522 0.015886
vt -0.288487 0.269227
vt 1.019239 0.936448
vt 1.110656 -0.247001
vt 0.864563 1.199334
vt 0.957350 0.015885
vt -0.526460 1.199334
vt -0.526460 0.019080
vt 0.678999 0.015886
vt -0.328152 0.269227
vt 1.390368 0.987994
vt 1.481784 -0.195455
vt -0.063258 1.199334
vt 0.029529 0.015885
vt -0.605774 1.199334
vt -0.605774 0.019080
vt 0.532478 0.015886
vt -0.248822 0.269227
vt 1.263194 0.676871
vt 1.316101 -0.008043
vt 0.586212 1.199334
vt -0.486803 1.199334
vt -0.486803 0.019080
vt 0.307871 0.015886
vt -0.367816 0.269227
vt 0.864563 0.015885
vt 0.773147 1.199334
vt -0.102809 0.028266
vt -0.165927 0.833304
vt -0.566117 1.199334
vt -0.566117 0.019080
vt 0.639956 0.015886
vt -0.407481 0.269227
vt 0.402019 1.199334
vt 0.307871 0.015885
vt 0.215084 1.199334
vt -0.645430 1.199334
vt -0.645430 0.019080
s 0
usemtl Material
f 25/57/7 27/58/7 28/59/7
f 34/60/8 30/61/8 33/62/8
f 29/63/9 30/64/9 26/65/9
f 30/61/10 27/66/10 26/67/10
f 31/68/11 32/69/11 28/70/11
f 25/71/12 32/72/12 29/73/12
f 32/72/13 33/74/13 29/73/13
f 35/75/7 37/76/7 38/77/7
f 44/78/8 40/79/8 43/80/8
f 39/81/9 40/82/9 36/83/9
f 40/79/10 37/84/10 36/85/10
f 41/86/11 42/87/11 38/88/11
f 35/89/12 42/90/12 39/91/12
f 42/90/13 43/92/13 39/91/13
f 45/93/7 47/94/7 48/95/7
f 54/96/8 50/97/8 53/98/8
f 49/99/9 50/100/9 46/101/9
f 50/97/10 47/102/10 46/103/10
f 51/104/11 52/105/11 48/106/11
f 45/107/12 52/108/12 49/109/12
f 52/108/13 53/110/13 49/109/13
f 55/111/7 57/112/7 58/113/7
f 64/114/8 60/115/8 63/116/8
f 59/117/9 60/118/9 56/119/9
f 60/115/10 57/120/10 56/121/10
f 61/122/11 62/123/11 58/124/11
f 55/125/12 62/126/12 59/127/12
f 62/126/13 63/128/13 59/127/13
f 65/129/7 67/130/7 68/131/7
f 74/132/8 70/133/8 73/134/8
f 69/135/9 70/136/9 66/137/9
f 70/133/10 67/138/10 66/139/10
f 71/140/11 72/141/11 68/142/11
f 65/143/12 72/144/12 69/145/12
f 72/144/13 73/146/13 69/145/13
f 25/57/7 26/147/7 27/58/7
f 34/60/14 31/148/14 30/61/14
f 26/65/9 25/149/9 29/63/9
f 29/63/9 33/150/9 30/64/9
f 30/61/10 31/148/10 27/66/10
f 28/70/11 27/151/11 31/68/11
f 31/68/11 34/152/11 32/69/11
f 25/71/12 28/153/12 32/72/12
f 32/72/15 34/154/15 33/74/15
f 35/75/7 36/155/7 37/76/7
f 44/78/14 41/156/14 40/79/14
f 36/83/9 35/157/9 39/81/9
f 39/81/9 43/158/9 40/82/9
f 40/79/10 41/156/10 37/84/10
f 38/88/11 37/159/11 41/86/11
f 41/86/11 44/160/11 42/87/11
f 35/89/12 38/161/12 42/90/12
f 42/90/15 44/162/15 43/92/15
f 45/93/7 46/163/7 47/94/7
f 54/96/14 51/164/14 50/97/14
f 46/101/9 45/165/9 49/99/9
f 49/99/9 53/166/9 50/100/9
f 50/97/10 51/164/10 47/102/10
f 48/106/11 47/155/11 51/104/11
f 51/104/11 54/167/11 52/105/11
f 45/107/12 48/168/12 52/108/12
f 52/108/15 54/169/15 53/110/15
f 55/111/7 56/170/7 57/112/7
f 64/114/14 61/171/14 60/115/14
f 56/119/9 55/172/9 59/117/9
f 59/117/9 63/173/9 60/118/9
f 60/115/10 61/171/10 57/120/10
f 58/124/11 57/174/11 61/122/11
f 61/122/11 64/175/11 62/123/11
f 55/125/12 58/176/12 62/126/12
f 62/126/15 64/177/15 63/128/15
f 65/129/7 66/178/7 67/130/7
f 74/132/14 71/179/14 70/133/14
f 66/137/9 65/94/9 69/135/9
f 69/135/9 73/180/9 70/136/9
f 70/133/10 71/179/10 67/138/10
f 68/142/11 67/181/11 71/140/11
f 71/140/11 74/182/11 72/141/11
f 65/143/12 68/183/12 72/144/12
f 72/144/15 74/184/15 73/146/15
